<?xml version="1.0" encoding="UTF-8" standalone="no"?>
<!-- Created with Inkscape (http://www.inkscape.org/) -->

<svg
   width="73.536942mm"
   height="9.1213226mm"
   viewBox="0 0 73.536942 9.1213226"
   version="1.1"
   id="svg614"
   inkscape:version="1.2.2 (732a01da63, 2022-12-09)"
   sodipodi:docname="lineas.svg"
   xmlns:inkscape="http://www.inkscape.org/namespaces/inkscape"
   xmlns:sodipodi="http://sodipodi.sourceforge.net/DTD/sodipodi-0.dtd"
   xmlns="http://www.w3.org/2000/svg"
   xmlns:svg="http://www.w3.org/2000/svg">
  <sodipodi:namedview
     id="namedview616"
     pagecolor="#ffffff"
     bordercolor="#000000"
     borderopacity="0.25"
     inkscape:showpageshadow="2"
     inkscape:pageopacity="0.0"
     inkscape:pagecheckerboard="0"
     inkscape:deskcolor="#d1d1d1"
     inkscape:document-units="mm"
     showgrid="false"
     inkscape:zoom="0.33071229"
     inkscape:cx="-54.427974"
     inkscape:cy="438.44756"
     inkscape:window-width="1366"
     inkscape:window-height="705"
     inkscape:window-x="-8"
     inkscape:window-y="-8"
     inkscape:window-maximized="1"
     inkscape:current-layer="g368"
     inkscape:lockguides="false" />
  <defs
     id="defs611" />
  <g
     inkscape:label="Capa 1"
     inkscape:groupmode="layer"
     id="layer1"
     transform="translate(-10.75153,-11.845053)">
    <g
       id="g368"
       transform="matrix(0.26458333,0,0,0.26458333,-37.410131,-35.266996)">
		<g
   id="g348"
   style="fill:#bf9f78;fill-opacity:1">
			<g
   id="g334"
   style="fill:#bf9f78;fill-opacity:1">
				<path
   style="fill:#bf9f78;fill-opacity:1"
   d="m 325.726,202.317 c 4.619,3.412 10.181,5.396 15.79,6.605 2.823,0.578 5.69,0.906 8.566,1.065 2.88,0.089 5.767,0.084 8.642,-0.195 5.753,-0.484 11.446,-1.662 17.011,-3.257 5.575,-1.591 10.987,-3.668 16.421,-5.885 5.435,-2.199 10.912,-4.472 16.624,-6.306 5.715,-1.812 11.674,-3.197 17.84,-3.488 3.077,-0.166 6.197,-0.009 9.292,0.45 3.107,0.509 6.175,1.341 9.085,2.613 5.816,2.472 11.16,6.656 14.551,12.383 0.836,1.412 0.37,3.235 -1.042,4.072 -1.413,0.836 -3.235,0.37 -4.072,-1.043 -0.014,-0.024 -0.028,-0.048 -0.041,-0.072 l -0.012,-0.022 c -2.477,-4.507 -6.682,-8.134 -11.587,-10.397 -2.441,-1.163 -5.068,-1.963 -7.74,-2.49 -2.704,-0.485 -5.476,-0.72 -8.272,-0.655 -5.597,0.085 -11.233,1.19 -16.757,2.756 -5.537,1.588 -10.997,3.65 -16.521,5.689 -10.997,4.18 -22.636,7.645 -34.598,8.285 -2.985,0.195 -5.986,0.109 -8.972,-0.079 -2.985,-0.257 -5.957,-0.693 -8.874,-1.386 -5.795,-1.442 -11.501,-3.673 -16.267,-7.421 -0.333,-0.262 -0.391,-0.745 -0.129,-1.079 0.258,-0.327 0.729,-0.388 1.062,-0.143 z"
   id="path332" />

			</g>

			<g
   id="g338"
   style="fill:#bf9f78;fill-opacity:1">
				<path
   style="fill:#bf9f78;fill-opacity:1"
   d="m 334.145,201.308 c 2.964,1.556 6.225,2.519 9.564,2.991 3.337,0.5 6.744,0.56 10.14,0.412 3.402,-0.187 6.819,-0.46 10.04,-1.237 1.612,-0.387 3.181,-0.896 4.641,-1.574 1.455,-0.669 2.782,-1.549 4.004,-2.589 2.419,-2.057 4.184,-4.805 4.538,-7.752 0.207,-1.447 0.003,-2.894 -0.571,-4.08 -0.578,-1.184 -1.497,-1.995 -2.665,-2.311 -2.52,-0.701 -6.179,0.076 -7.411,1.791 -0.325,0.456 -0.4,0.747 -0.388,1.087 0.023,0.328 0.183,0.715 0.484,1.063 0.296,0.348 0.72,0.63 1.135,0.759 0.42,0.132 0.798,0.123 1.122,0.003 1.16,-0.429 2.448,0.163 2.877,1.323 0.429,1.16 -0.163,2.448 -1.323,2.877 -0.03,0.011 -0.061,0.022 -0.092,0.032 l -0.079,0.025 c -1.324,0.42 -2.764,0.325 -3.965,-0.126 -1.211,-0.45 -2.241,-1.212 -3.025,-2.209 -0.779,-0.99 -1.324,-2.279 -1.335,-3.685 -0.033,-1.402 0.611,-2.795 1.355,-3.686 1.577,-1.911 3.695,-2.714 5.662,-3.11 2.006,-0.363 4.008,-0.354 6.073,0.278 1.068,0.336 2.093,0.929 2.916,1.708 0.829,0.776 1.456,1.716 1.889,2.697 0.861,1.963 1.017,4.102 0.675,6.059 -0.314,1.955 -1.084,3.805 -2.131,5.417 -1.055,1.611 -2.374,2.992 -3.828,4.158 -1.448,1.152 -3.064,2.137 -4.776,2.853 -1.702,0.718 -3.457,1.213 -5.216,1.57 -3.535,0.715 -7.05,0.861 -10.543,0.93 -3.505,0.028 -7.037,-0.157 -10.518,-0.804 -3.477,-0.619 -6.903,-1.757 -10.001,-3.529 -0.368,-0.21 -0.496,-0.68 -0.285,-1.048 0.206,-0.36 0.658,-0.49 1.022,-0.3 z"
   id="path336" />

			</g>

			<g
   id="g342"
   style="fill:#bf9f78;fill-opacity:1">
				<path
   style="fill:#bf9f78;fill-opacity:1"
   d="m 378.878,200.998 c 7.079,-4.611 11.688,-12.092 12.789,-19.547 0.32,-2.169 2.338,-3.667 4.507,-3.346 2.169,0.321 3.667,2.338 3.347,4.507 -0.049,0.331 -0.137,0.646 -0.26,0.941 l -0.059,0.138 c -3.805,9.041 -11.254,15.773 -19.653,18.689 -0.403,0.14 -0.844,-0.073 -0.984,-0.477 -0.119,-0.343 0.017,-0.712 0.308,-0.902 z"
   id="path340" />

			</g>

			<g
   id="g346"
   style="fill:#bf9f78;fill-opacity:1">
				<path
   style="fill:#bf9f78;fill-opacity:1"
   d="m 410.577,201.917 c 8.806,-3.521 19.613,-2.052 27.436,4.205 l 0.015,0.011 c 0.932,0.745 1.083,2.105 0.337,3.037 -0.746,0.932 -2.105,1.083 -3.037,0.338 -0.06,-0.048 -0.118,-0.1 -0.171,-0.153 -5.946,-5.894 -15.525,-8.458 -24.077,-5.987 -0.407,0.119 -0.834,-0.114 -0.954,-0.521 -0.114,-0.381 0.09,-0.783 0.451,-0.93 z"
   id="path344" />

			</g>

		</g>

		<g
   id="g366"
   style="fill:#bf9f78;fill-opacity:1">
			<g
   id="g352"
   style="fill:#bf9f78;fill-opacity:1">
				<path
   style="fill:#bf9f78;fill-opacity:1"
   d="m 317.199,203.538 c -4.766,3.748 -10.472,5.979 -16.267,7.421 -2.917,0.693 -5.888,1.129 -8.874,1.386 -2.986,0.188 -5.987,0.274 -8.972,0.079 -11.962,-0.64 -23.601,-4.104 -34.598,-8.285 -5.524,-2.038 -10.984,-4.101 -16.521,-5.689 -5.524,-1.565 -11.16,-2.671 -16.757,-2.756 -2.796,-0.065 -5.568,0.17 -8.272,0.655 -2.672,0.527 -5.299,1.327 -7.74,2.49 -4.905,2.263 -9.11,5.89 -11.587,10.397 l -0.006,0.01 c -0.79,1.438 -2.598,1.964 -4.036,1.173 -1.438,-0.791 -1.963,-2.598 -1.173,-4.036 0.013,-0.024 0.033,-0.059 0.047,-0.083 3.391,-5.727 8.735,-9.911 14.551,-12.383 2.91,-1.272 5.978,-2.104 9.085,-2.613 3.095,-0.459 6.215,-0.616 9.292,-0.45 6.167,0.291 12.125,1.676 17.84,3.488 5.712,1.834 11.189,4.107 16.624,6.306 5.434,2.217 10.847,4.294 16.421,5.885 5.565,1.595 11.258,2.773 17.011,3.257 2.876,0.279 5.762,0.284 8.643,0.195 2.876,-0.158 5.743,-0.487 8.566,-1.065 5.609,-1.209 11.171,-3.193 15.789,-6.605 0.341,-0.253 0.822,-0.181 1.075,0.16 0.249,0.336 0.183,0.807 -0.141,1.063 z"
   id="path350" />

			</g>

			<g
   id="g356"
   style="fill:#bf9f78;fill-opacity:1">
				<path
   style="fill:#bf9f78;fill-opacity:1"
   d="m 308.598,202.648 c -3.098,1.772 -6.524,2.91 -10.001,3.529 -3.48,0.648 -7.012,0.832 -10.518,0.804 -3.494,-0.07 -7.009,-0.215 -10.543,-0.93 -1.759,-0.358 -3.514,-0.853 -5.216,-1.57 -1.712,-0.715 -3.329,-1.701 -4.776,-2.853 -1.454,-1.166 -2.773,-2.547 -3.829,-4.158 -1.046,-1.611 -1.816,-3.462 -2.13,-5.417 -0.342,-1.956 -0.186,-4.095 0.675,-6.059 0.433,-0.98 1.061,-1.92 1.889,-2.697 0.823,-0.779 1.848,-1.371 2.916,-1.708 2.065,-0.631 4.067,-0.641 6.073,-0.278 1.967,0.396 4.085,1.199 5.662,3.11 0.744,0.891 1.388,2.284 1.355,3.686 -0.011,1.407 -0.556,2.695 -1.335,3.685 -0.785,0.997 -1.814,1.759 -3.025,2.209 -1.201,0.451 -2.641,0.546 -3.965,0.126 l -0.071,-0.022 c -1.179,-0.374 -1.831,-1.633 -1.457,-2.812 0.374,-1.179 1.632,-1.831 2.811,-1.457 0.031,0.01 0.069,0.023 0.1,0.034 0.324,0.12 0.702,0.129 1.123,-0.003 0.415,-0.13 0.839,-0.412 1.135,-0.759 0.301,-0.348 0.46,-0.735 0.484,-1.063 0.012,-0.339 -0.063,-0.63 -0.388,-1.087 -1.231,-1.715 -4.891,-2.491 -7.411,-1.791 -1.168,0.316 -2.087,1.127 -2.665,2.311 -0.574,1.186 -0.778,2.633 -0.571,4.08 0.354,2.947 2.119,5.695 4.538,7.752 1.222,1.04 2.549,1.92 4.004,2.589 1.46,0.678 3.028,1.187 4.641,1.574 3.221,0.777 6.638,1.05 10.04,1.237 3.396,0.148 6.803,0.088 10.14,-0.412 3.339,-0.472 6.6,-1.436 9.564,-2.991 l 0.012,-0.006 c 0.376,-0.197 0.84,-0.052 1.037,0.323 0.193,0.367 0.059,0.82 -0.298,1.024 z"
   id="path354" />

			</g>

			<g
   id="g360"
   style="fill:#bf9f78;fill-opacity:1">
				<path
   style="fill:#bf9f78;fill-opacity:1"
   d="m 262.443,202.38 c -8.398,-2.917 -15.848,-9.648 -19.652,-18.689 l -0.051,-0.12 c -0.85,-2.021 0.099,-4.348 2.119,-5.198 2.02,-0.85 4.348,0.098 5.198,2.119 0.129,0.308 0.219,0.643 0.268,0.959 1.102,7.455 5.71,14.936 12.79,19.547 l 0.004,0.003 c 0.358,0.233 0.459,0.712 0.226,1.07 -0.198,0.304 -0.573,0.422 -0.902,0.309 z"
   id="path358" />

			</g>

			<g
   id="g364"
   style="fill:#bf9f78;fill-opacity:1">
				<path
   style="fill:#bf9f78;fill-opacity:1"
   d="m 230.914,203.369 c -8.552,-2.471 -18.131,0.093 -24.077,5.987 -0.848,0.84 -2.216,0.834 -3.056,-0.013 -0.84,-0.848 -0.835,-2.216 0.013,-3.056 0.055,-0.054 0.111,-0.104 0.169,-0.151 l 0.017,-0.013 c 7.822,-6.257 18.629,-7.726 27.436,-4.205 0.394,0.158 0.586,0.605 0.428,0.999 -0.147,0.369 -0.556,0.559 -0.93,0.452 z"
   id="path362" />

			</g>

		</g>

	</g>
  </g>
</svg>
